<svg width="177" height="31" viewBox="0 0 177 31" fill="none" xmlns="http://www.w3.org/2000/svg">
<path d="M11.168 12.148C12.272 12.148 13.292 12.232 14.228 12.4C15.164 12.568 16.088 12.856 17 13.264C17.912 13.672 18.632 14.296 19.16 15.136C19.688 15.952 19.952 16.948 19.952 18.124C19.952 19.252 19.784 20.236 19.448 21.076C19.136 21.892 18.716 22.552 18.188 23.056C17.684 23.536 17.024 23.92 16.208 24.208C15.392 24.496 14.564 24.7 13.724 24.82C12.908 24.916 11.96 24.964 10.88 24.964H0.8V0.591999H7.064C8.96 0.591999 10.532 0.663999 11.78 0.807998C13.028 0.951999 14.156 1.228 15.164 1.636C16.172 2.044 16.904 2.644 17.36 3.436C17.84 4.204 18.08 5.2 18.08 6.424C18.08 7.48 17.84 8.392 17.36 9.16C16.904 9.928 16.376 10.504 15.776 10.888C15.2 11.248 14.528 11.536 13.76 11.752C12.992 11.944 12.428 12.064 12.068 12.112C11.708 12.136 11.408 12.148 11.168 12.148ZM5.804 11.104V11.788H8.468C10.028 11.788 11.216 11.392 12.032 10.6C12.848 9.784 13.256 8.284 13.256 6.1C13.256 3.004 11.312 1.456 7.424 1.456H5.804V11.104ZM10.844 24.064C11.996 24.016 12.98 23.512 13.796 22.552C14.612 21.592 15.02 20.32 15.02 18.736C15.02 17.632 14.828 16.684 14.444 15.892C14.06 15.076 13.616 14.476 13.112 14.092C12.632 13.684 12.056 13.372 11.384 13.156C10.712 12.916 10.196 12.784 9.836 12.76C9.476 12.712 9.14 12.676 8.828 12.652C8.78 12.652 8.744 12.652 8.72 12.652H5.804V24.064H10.844ZM33.7594 25V19.6C33.6874 20.752 33.0754 22 31.9234 23.344C30.7954 24.688 29.4394 25.36 27.8554 25.36C25.8874 25.36 24.3274 24.748 23.1754 23.524C22.0474 22.3 21.4834 20.86 21.4834 19.204C21.4834 17.116 22.1914 15.412 23.6074 14.092C25.0234 12.772 26.7874 12.112 28.8994 12.112C30.7474 12.112 32.2594 12.592 33.4354 13.552C33.1954 10.168 32.2354 8.476 30.5554 8.476C28.8994 8.476 27.7834 9.544 27.2074 11.68L23.4994 11.14C24.3154 9.94 25.2274 9.064 26.2354 8.512C27.2434 7.936 28.5274 7.648 30.0874 7.648C32.9674 7.648 35.1154 8.416 36.5314 9.952C37.9714 11.464 38.6914 13.588 38.6914 16.324V25H33.7594ZM33.3634 15.28L33.4354 14.596C32.6674 14.068 31.8754 13.804 31.0594 13.804C29.7154 13.804 28.5154 14.368 27.4594 15.496C26.4034 16.624 25.8754 17.86 25.8754 19.204C25.8754 20.956 26.3554 22.168 27.3154 22.84L27.3874 22.876L27.5674 22.948C27.9514 23.14 28.3594 23.236 28.7914 23.236C31.5034 23.236 33.0274 20.584 33.3634 15.28ZM54.1753 7.828C55.0393 8.188 55.6753 8.692 56.0833 9.34L53.8873 13.876L53.7073 13.192C53.4673 12.352 53.0953 11.56 52.5913 10.816C52.1113 10.048 51.5713 9.664 50.9713 9.664C50.1553 9.664 49.4833 10.24 48.9553 11.392C48.7393 11.872 48.5593 12.352 48.4153 12.832C48.2233 13.48 48.0313 14.284 47.8393 15.244C47.6713 16.18 47.5393 16.96 47.4433 17.584L47.2993 18.52C47.2753 18.664 47.2393 18.868 47.1913 19.132C47.1673 19.372 47.1433 19.552 47.1193 19.672C46.9273 21.232 46.7953 22.48 46.7233 23.416C46.6273 24.136 46.5793 24.664 46.5793 25H41.6473V8.008H46.5793V18.844C46.6273 18.268 46.6753 17.848 46.7233 17.584C47.0833 14.776 47.6233 12.592 48.3433 11.032C48.8713 9.808 49.5553 8.92 50.3953 8.368C50.8993 8.008 51.5353 7.78 52.3033 7.684C53.0713 7.564 53.6953 7.612 54.1753 7.828ZM70.6479 22.984L70.9719 23.488C69.4839 24.712 67.3959 25.324 64.7079 25.324C62.6439 25.324 60.7599 24.532 59.0559 22.948C57.3519 21.364 56.4999 19.216 56.4999 16.504C56.4999 14.008 57.3519 11.908 59.0559 10.204C60.7839 8.5 62.8839 7.648 65.3559 7.648C67.0359 7.648 68.5479 8.092 69.8919 8.98C71.2359 9.844 72.1479 11.2 72.6279 13.048L69.0279 14.272C68.8359 14.344 68.5719 14.44 68.2359 14.56C67.9239 14.656 67.3599 14.884 66.5439 15.244C65.7279 15.604 65.0079 15.964 64.3839 16.324C63.7599 16.66 63.1839 17.092 62.6559 17.62C62.1519 18.124 61.9119 18.604 61.9359 19.06C63.9519 21.94 66.8559 23.248 70.6479 22.984ZM61.3239 17.98C61.4679 17.5 62.0799 16.924 63.1599 16.252C64.2639 15.556 65.2479 15.016 66.1119 14.632C66.9999 14.224 67.8639 13.852 68.7039 13.516L68.2359 12.436C66.7479 9.892 65.1639 8.62 63.4839 8.62C62.3319 8.62 61.4319 9.016 60.7839 9.808C60.1359 10.6 59.8119 11.596 59.8119 12.796C59.8119 12.844 59.8119 12.928 59.8119 13.048C59.8359 13.144 59.8479 13.228 59.8479 13.3C60.0879 15.004 60.5799 16.564 61.3239 17.98Z" fill="#9CC69B"/>
<path d="M85.2422 12.148C86.3462 12.148 87.3662 12.232 88.3022 12.4C89.2382 12.568 90.1622 12.856 91.0742 13.264C91.9862 13.672 92.7062 14.296 93.2342 15.136C93.7622 15.952 94.0262 16.948 94.0262 18.124C94.0262 19.252 93.8582 20.236 93.5222 21.076C93.2102 21.892 92.7902 22.552 92.2622 23.056C91.7582 23.536 91.0982 23.92 90.2822 24.208C89.4662 24.496 88.6382 24.7 87.7982 24.82C86.9822 24.916 86.0342 24.964 84.9542 24.964H74.8742V0.591999H81.1382C83.0342 0.591999 84.6062 0.663999 85.8542 0.807998C87.1022 0.951999 88.2302 1.228 89.2382 1.636C90.2462 2.044 90.9782 2.644 91.4342 3.436C91.9142 4.204 92.1542 5.2 92.1542 6.424C92.1542 7.48 91.9142 8.392 91.4342 9.16C90.9782 9.928 90.4502 10.504 89.8502 10.888C89.2742 11.248 88.6022 11.536 87.8342 11.752C87.0662 11.944 86.5022 12.064 86.1422 12.112C85.7822 12.136 85.4822 12.148 85.2422 12.148ZM79.8782 11.104V11.788H82.5422C84.1022 11.788 85.2902 11.392 86.1062 10.6C86.9222 9.784 87.3302 8.284 87.3302 6.1C87.3302 3.004 85.3862 1.456 81.4982 1.456H79.8782V11.104ZM84.9182 24.064C86.0702 24.016 87.0542 23.512 87.8702 22.552C88.6862 21.592 89.0942 20.32 89.0942 18.736C89.0942 17.632 88.9022 16.684 88.5182 15.892C88.1342 15.076 87.6902 14.476 87.1862 14.092C86.7062 13.684 86.1302 13.372 85.4582 13.156C84.7862 12.916 84.2702 12.784 83.9102 12.76C83.5502 12.712 83.2142 12.676 82.9022 12.652C82.8542 12.652 82.8182 12.652 82.7942 12.652H79.8782V24.064H84.9182ZM109.742 22.984L110.066 23.488C108.578 24.712 106.49 25.324 103.802 25.324C101.738 25.324 99.8536 24.532 98.1496 22.948C96.4456 21.364 95.5936 19.216 95.5936 16.504C95.5936 14.008 96.4456 11.908 98.1496 10.204C99.8776 8.5 101.978 7.648 104.45 7.648C106.13 7.648 107.642 8.092 108.986 8.98C110.33 9.844 111.242 11.2 111.722 13.048L108.122 14.272C107.93 14.344 107.666 14.44 107.33 14.56C107.018 14.656 106.454 14.884 105.638 15.244C104.822 15.604 104.102 15.964 103.478 16.324C102.854 16.66 102.278 17.092 101.75 17.62C101.246 18.124 101.006 18.604 101.03 19.06C103.046 21.94 105.95 23.248 109.742 22.984ZM100.418 17.98C100.562 17.5 101.174 16.924 102.254 16.252C103.358 15.556 104.342 15.016 105.206 14.632C106.094 14.224 106.958 13.852 107.798 13.516L107.33 12.436C105.842 9.892 104.258 8.62 102.578 8.62C101.426 8.62 100.526 9.016 99.8776 9.808C99.2296 10.6 98.9056 11.596 98.9056 12.796C98.9056 12.844 98.9056 12.928 98.9056 13.048C98.9296 13.144 98.9416 13.228 98.9416 13.3C99.1816 15.004 99.6736 16.564 100.418 17.98ZM124.322 25V19.6C124.25 20.752 123.638 22 122.486 23.344C121.358 24.688 120.002 25.36 118.418 25.36C116.45 25.36 114.89 24.748 113.738 23.524C112.61 22.3 112.046 20.86 112.046 19.204C112.046 17.116 112.754 15.412 114.17 14.092C115.586 12.772 117.35 12.112 119.462 12.112C121.31 12.112 122.822 12.592 123.998 13.552C123.758 10.168 122.798 8.476 121.118 8.476C119.462 8.476 118.346 9.544 117.77 11.68L114.062 11.14C114.878 9.94 115.79 9.064 116.798 8.512C117.806 7.936 119.09 7.648 120.65 7.648C123.53 7.648 125.678 8.416 127.094 9.952C128.534 11.464 129.254 13.588 129.254 16.324V25H124.322ZM123.926 15.28L123.998 14.596C123.23 14.068 122.438 13.804 121.622 13.804C120.278 13.804 119.078 14.368 118.022 15.496C116.966 16.624 116.438 17.86 116.438 19.204C116.438 20.956 116.918 22.168 117.878 22.84L117.95 22.876L118.13 22.948C118.514 23.14 118.922 23.236 119.354 23.236C122.066 23.236 123.59 20.584 123.926 15.28ZM142.614 7.972H147.546V24.964H142.614V14.128C142.566 14.656 142.518 15.076 142.47 15.388C142.086 18.268 141.558 20.452 140.886 21.94C140.334 23.14 139.65 24.028 138.834 24.604C138.306 24.964 137.658 25.192 136.89 25.288C136.122 25.384 135.498 25.336 135.018 25.144C134.058 24.808 133.326 24.148 132.822 23.164C132.318 22.18 132.066 21.124 132.066 19.996V7.972H136.998V18.628V21.256C136.998 21.76 137.106 22.228 137.322 22.66C137.562 23.068 137.874 23.284 138.258 23.308C139.074 23.404 139.746 22.828 140.274 21.58C140.61 20.812 140.97 19.564 141.354 17.836C141.69 16.108 141.93 14.608 142.074 13.336C142.122 12.952 142.17 12.556 142.218 12.148C142.266 11.716 142.314 11.248 142.362 10.744C142.434 10.24 142.482 9.844 142.506 9.556C142.578 8.548 142.614 8.02 142.614 7.972ZM158.08 9.376H156.388V18.592C156.388 18.736 156.4 19.012 156.424 19.42C156.448 19.804 156.46 20.104 156.46 20.32C156.484 20.536 156.508 20.824 156.532 21.184C156.58 21.544 156.64 21.844 156.712 22.084C156.784 22.3 156.88 22.54 157 22.804C157.12 23.044 157.264 23.248 157.432 23.416C157.624 23.56 157.84 23.668 158.08 23.74V24.964C155.344 25.036 153.424 24.388 152.32 23.02C152.032 22.636 151.816 22.108 151.672 21.436C151.528 20.74 151.444 20.104 151.42 19.528C151.396 18.952 151.384 18.052 151.384 16.828V9.376H149.728V8.008C149.848 8.008 150.004 8.008 150.196 8.008C150.388 7.984 150.748 7.9 151.276 7.756C151.804 7.588 152.284 7.372 152.716 7.108C153.148 6.82 153.568 6.376 153.976 5.776C154.384 5.152 154.66 4.408 154.804 3.544H156.388V8.008H158.08V9.376ZM175.163 8.008H176.747L167.423 27.196C167.423 27.244 167.399 27.292 167.351 27.34C166.823 28.348 166.115 29.188 165.227 29.86C164.363 30.532 163.403 30.868 162.347 30.868C161.411 30.868 160.619 30.568 159.971 29.968C159.347 29.392 159.035 28.612 159.035 27.628C159.035 26.716 159.299 25.912 159.827 25.216C160.355 24.52 161.003 24.004 161.771 23.668C162.563 23.308 163.235 23.056 163.787 22.912C164.363 22.744 164.855 22.636 165.263 22.588C165.551 22.564 165.695 22.396 165.695 22.084C165.695 21.748 165.623 21.424 165.479 21.112L165.263 20.644L159.143 8.008H164.471L169.835 19.096L175.163 8.008ZM166.955 24.964L168.035 22.804C167.267 23.188 166.415 23.38 165.479 23.38C163.295 23.38 161.699 24.076 160.691 25.468C159.971 26.5 159.851 27.436 160.331 28.276C160.571 28.684 160.931 28.972 161.411 29.14C161.675 29.236 161.975 29.284 162.311 29.284C163.895 29.284 165.359 28.024 166.703 25.504L166.955 24.964Z" fill="#79B4A9"/>
</svg>
